<svg xmlns="http://www.w3.org/2000/svg" width="40.691" height="22.639" viewBox="0 0 40.691 22.639">
  <path id="ico" d="M18358.555,21202.947a2.573,2.573,0,1,1,2.57,2.693A2.642,2.642,0,0,1,18358.555,21202.947Zm-20.762,0a2.576,2.576,0,1,1,2.57,2.693A2.643,2.643,0,0,1,18337.793,21202.947Zm26.541-1.229a3.222,3.222,0,0,0-3.209-2.352,3.68,3.68,0,0,0-3.764,2.352H18355v-10.287a2.073,2.073,0,0,1,2.029-2.119l1.521-.025v-.012h1.947a4.857,4.857,0,0,1,.762.055,6.368,6.368,0,0,1,5.428,6.422v4.344a1.589,1.589,0,0,1-1.555,1.623Zm-20.766,0a3.363,3.363,0,0,0-6.414,0h-1.133a2.789,2.789,0,0,1-2.719-2.854v-5.082h-2.486a1.5,1.5,0,0,1,0-3h2.486v-.855h-5.8a1.5,1.5,0,1,1,0-3h5.8v-.861h-2.955a1.5,1.5,0,0,1,0-3h7.93a1.4,1.4,0,0,1,.184.012l13.8-.07a2.11,2.11,0,0,1,2.061,2.154l-.154,16.563Z" transform="translate(-18326 -21183.002)"/>
</svg>
